<mxfile host="app.diagrams.net" modified="2024-05-15T03:25:57.303Z" agent="Mozilla/5.0 (Macintosh; Intel Mac OS X 10_15_7) AppleWebKit/605.1.15 (KHTML, like Gecko) Version/15.6 Safari/605.1.15" etag="MZUJ6j3cgmo5a2lwo6Dx" version="24.4.0" type="github">
  <diagram name="Page-1" id="52a04d89-c75d-2922-d76d-85b35f80e030">
    <mxGraphModel dx="1434" dy="827" grid="1" gridSize="10" guides="1" tooltips="1" connect="1" arrows="1" fold="1" page="1" pageScale="1" pageWidth="1100" pageHeight="850" background="none" math="0" shadow="0">
      <root>
        <mxCell id="0" />
        <mxCell id="1" parent="0" />
        <mxCell id="se1pTx6E6cq9dKafki0H-7" value="" style="edgeStyle=orthogonalEdgeStyle;rounded=0;orthogonalLoop=1;jettySize=auto;html=1;" edge="1" parent="1" source="se1pTx6E6cq9dKafki0H-2" target="se1pTx6E6cq9dKafki0H-6">
          <mxGeometry relative="1" as="geometry" />
        </mxCell>
        <mxCell id="se1pTx6E6cq9dKafki0H-2" value="用户导入运单信息" style="whiteSpace=wrap;html=1;strokeWidth=2;" vertex="1" parent="1">
          <mxGeometry x="250" y="130" width="120" height="60" as="geometry" />
        </mxCell>
        <mxCell id="se1pTx6E6cq9dKafki0H-12" value="" style="edgeStyle=orthogonalEdgeStyle;rounded=0;orthogonalLoop=1;jettySize=auto;html=1;" edge="1" parent="1" source="se1pTx6E6cq9dKafki0H-6" target="se1pTx6E6cq9dKafki0H-11">
          <mxGeometry relative="1" as="geometry" />
        </mxCell>
        <mxCell id="se1pTx6E6cq9dKafki0H-13" value="否" style="edgeLabel;html=1;align=center;verticalAlign=middle;resizable=0;points=[];" vertex="1" connectable="0" parent="se1pTx6E6cq9dKafki0H-12">
          <mxGeometry x="-0.175" y="4" relative="1" as="geometry">
            <mxPoint as="offset" />
          </mxGeometry>
        </mxCell>
        <mxCell id="se1pTx6E6cq9dKafki0H-23" value="" style="edgeStyle=orthogonalEdgeStyle;rounded=0;orthogonalLoop=1;jettySize=auto;html=1;" edge="1" parent="1" source="se1pTx6E6cq9dKafki0H-6" target="se1pTx6E6cq9dKafki0H-22">
          <mxGeometry relative="1" as="geometry" />
        </mxCell>
        <mxCell id="se1pTx6E6cq9dKafki0H-6" value="是否为只有件" style="rhombus;whiteSpace=wrap;html=1;strokeWidth=2;" vertex="1" parent="1">
          <mxGeometry x="270" y="240" width="80" height="80" as="geometry" />
        </mxCell>
        <mxCell id="se1pTx6E6cq9dKafki0H-18" value="是" style="edgeStyle=orthogonalEdgeStyle;rounded=0;orthogonalLoop=1;jettySize=auto;html=1;" edge="1" parent="1" source="se1pTx6E6cq9dKafki0H-11" target="se1pTx6E6cq9dKafki0H-14">
          <mxGeometry relative="1" as="geometry" />
        </mxCell>
        <mxCell id="se1pTx6E6cq9dKafki0H-20" value="" style="edgeStyle=orthogonalEdgeStyle;rounded=0;orthogonalLoop=1;jettySize=auto;html=1;" edge="1" parent="1" source="se1pTx6E6cq9dKafki0H-11" target="se1pTx6E6cq9dKafki0H-19">
          <mxGeometry relative="1" as="geometry" />
        </mxCell>
        <mxCell id="se1pTx6E6cq9dKafki0H-21" value="否" style="edgeLabel;html=1;align=center;verticalAlign=middle;resizable=0;points=[];" vertex="1" connectable="0" parent="se1pTx6E6cq9dKafki0H-20">
          <mxGeometry x="-0.45" y="-3" relative="1" as="geometry">
            <mxPoint as="offset" />
          </mxGeometry>
        </mxCell>
        <mxCell id="se1pTx6E6cq9dKafki0H-11" value="运单、PO、件号、数量、单价是否为空" style="rhombus;whiteSpace=wrap;html=1;strokeWidth=2;" vertex="1" parent="1">
          <mxGeometry x="270" y="400" width="80" height="80" as="geometry" />
        </mxCell>
        <mxCell id="se1pTx6E6cq9dKafki0H-14" value="限制导入上传" style="html=1;dashed=0;whiteSpace=wrap;shape=mxgraph.dfd.start" vertex="1" parent="1">
          <mxGeometry x="430" y="425" width="80" height="30" as="geometry" />
        </mxCell>
        <mxCell id="se1pTx6E6cq9dKafki0H-17" style="edgeStyle=orthogonalEdgeStyle;rounded=0;orthogonalLoop=1;jettySize=auto;html=1;" edge="1" parent="1" source="se1pTx6E6cq9dKafki0H-16" target="se1pTx6E6cq9dKafki0H-2">
          <mxGeometry relative="1" as="geometry" />
        </mxCell>
        <mxCell id="se1pTx6E6cq9dKafki0H-16" value="开始" style="html=1;dashed=0;whiteSpace=wrap;shape=mxgraph.dfd.start" vertex="1" parent="1">
          <mxGeometry x="270" y="40" width="80" height="30" as="geometry" />
        </mxCell>
        <mxCell id="se1pTx6E6cq9dKafki0H-32" style="edgeStyle=orthogonalEdgeStyle;rounded=0;orthogonalLoop=1;jettySize=auto;html=1;" edge="1" parent="1" source="se1pTx6E6cq9dKafki0H-19" target="se1pTx6E6cq9dKafki0H-14">
          <mxGeometry relative="1" as="geometry" />
        </mxCell>
        <mxCell id="se1pTx6E6cq9dKafki0H-38" value="是" style="edgeLabel;html=1;align=center;verticalAlign=middle;resizable=0;points=[];" vertex="1" connectable="0" parent="se1pTx6E6cq9dKafki0H-32">
          <mxGeometry x="0.2327" relative="1" as="geometry">
            <mxPoint as="offset" />
          </mxGeometry>
        </mxCell>
        <mxCell id="se1pTx6E6cq9dKafki0H-36" value="" style="edgeStyle=orthogonalEdgeStyle;rounded=0;orthogonalLoop=1;jettySize=auto;html=1;" edge="1" parent="1" source="se1pTx6E6cq9dKafki0H-19" target="se1pTx6E6cq9dKafki0H-35">
          <mxGeometry relative="1" as="geometry" />
        </mxCell>
        <mxCell id="se1pTx6E6cq9dKafki0H-37" value="否" style="edgeLabel;html=1;align=center;verticalAlign=middle;resizable=0;points=[];" vertex="1" connectable="0" parent="se1pTx6E6cq9dKafki0H-36">
          <mxGeometry x="-0.4" relative="1" as="geometry">
            <mxPoint as="offset" />
          </mxGeometry>
        </mxCell>
        <mxCell id="se1pTx6E6cq9dKafki0H-19" value="PO号/件号是否不存在" style="rhombus;whiteSpace=wrap;html=1;strokeWidth=2;" vertex="1" parent="1">
          <mxGeometry x="270" y="540" width="80" height="80" as="geometry" />
        </mxCell>
        <mxCell id="se1pTx6E6cq9dKafki0H-28" style="edgeStyle=orthogonalEdgeStyle;rounded=0;orthogonalLoop=1;jettySize=auto;html=1;" edge="1" parent="1" source="se1pTx6E6cq9dKafki0H-22" target="se1pTx6E6cq9dKafki0H-14">
          <mxGeometry relative="1" as="geometry" />
        </mxCell>
        <mxCell id="se1pTx6E6cq9dKafki0H-29" value="是" style="edgeLabel;html=1;align=center;verticalAlign=middle;resizable=0;points=[];" vertex="1" connectable="0" parent="se1pTx6E6cq9dKafki0H-28">
          <mxGeometry x="-0.3905" y="1" relative="1" as="geometry">
            <mxPoint as="offset" />
          </mxGeometry>
        </mxCell>
        <mxCell id="se1pTx6E6cq9dKafki0H-31" value="" style="edgeStyle=orthogonalEdgeStyle;rounded=0;orthogonalLoop=1;jettySize=auto;html=1;" edge="1" parent="1" source="se1pTx6E6cq9dKafki0H-22" target="se1pTx6E6cq9dKafki0H-30">
          <mxGeometry relative="1" as="geometry" />
        </mxCell>
        <mxCell id="se1pTx6E6cq9dKafki0H-52" value="否" style="edgeLabel;html=1;align=center;verticalAlign=middle;resizable=0;points=[];" vertex="1" connectable="0" parent="se1pTx6E6cq9dKafki0H-31">
          <mxGeometry x="-0.3143" y="1" relative="1" as="geometry">
            <mxPoint as="offset" />
          </mxGeometry>
        </mxCell>
        <mxCell id="se1pTx6E6cq9dKafki0H-22" value="运单、件号、数量、单价是否为空" style="rhombus;whiteSpace=wrap;html=1;strokeWidth=2;" vertex="1" parent="1">
          <mxGeometry x="430" y="240" width="80" height="80" as="geometry" />
        </mxCell>
        <mxCell id="se1pTx6E6cq9dKafki0H-30" value="写入运单表数据" style="shape=parallelogram;perimeter=parallelogramPerimeter;whiteSpace=wrap;html=1;fixedSize=1;strokeWidth=2;" vertex="1" parent="1">
          <mxGeometry x="570" y="250" width="120" height="60" as="geometry" />
        </mxCell>
        <mxCell id="se1pTx6E6cq9dKafki0H-42" value="" style="edgeStyle=orthogonalEdgeStyle;rounded=0;orthogonalLoop=1;jettySize=auto;html=1;" edge="1" parent="1" source="se1pTx6E6cq9dKafki0H-35" target="se1pTx6E6cq9dKafki0H-41">
          <mxGeometry relative="1" as="geometry" />
        </mxCell>
        <mxCell id="se1pTx6E6cq9dKafki0H-49" value="否" style="edgeLabel;html=1;align=center;verticalAlign=middle;resizable=0;points=[];" vertex="1" connectable="0" parent="se1pTx6E6cq9dKafki0H-42">
          <mxGeometry x="-0.1778" y="3" relative="1" as="geometry">
            <mxPoint as="offset" />
          </mxGeometry>
        </mxCell>
        <mxCell id="se1pTx6E6cq9dKafki0H-35" value="单价是否不一致/PO数量是否超出" style="rhombus;whiteSpace=wrap;html=1;strokeWidth=2;" vertex="1" parent="1">
          <mxGeometry x="270" y="680" width="80" height="80" as="geometry" />
        </mxCell>
        <mxCell id="se1pTx6E6cq9dKafki0H-44" value="" style="edgeStyle=orthogonalEdgeStyle;rounded=0;orthogonalLoop=1;jettySize=auto;html=1;" edge="1" parent="1" source="se1pTx6E6cq9dKafki0H-41" target="se1pTx6E6cq9dKafki0H-43">
          <mxGeometry relative="1" as="geometry" />
        </mxCell>
        <mxCell id="se1pTx6E6cq9dKafki0H-41" value="写入运单数据表并关联PO、POLINE" style="shape=parallelogram;perimeter=parallelogramPerimeter;whiteSpace=wrap;html=1;fixedSize=1;strokeWidth=2;" vertex="1" parent="1">
          <mxGeometry x="250" y="850" width="120" height="60" as="geometry" />
        </mxCell>
        <mxCell id="se1pTx6E6cq9dKafki0H-43" value="验收查询运单信息验收" style="whiteSpace=wrap;html=1;strokeWidth=2;" vertex="1" parent="1">
          <mxGeometry x="250" y="990" width="120" height="60" as="geometry" />
        </mxCell>
        <mxCell id="se1pTx6E6cq9dKafki0H-47" value="结束" style="html=1;dashed=0;whiteSpace=wrap;shape=mxgraph.dfd.start" vertex="1" parent="1">
          <mxGeometry x="270" y="1090" width="80" height="30" as="geometry" />
        </mxCell>
        <mxCell id="se1pTx6E6cq9dKafki0H-48" style="edgeStyle=orthogonalEdgeStyle;rounded=0;orthogonalLoop=1;jettySize=auto;html=1;entryX=0.5;entryY=0.5;entryDx=0;entryDy=-15;entryPerimeter=0;" edge="1" parent="1" source="se1pTx6E6cq9dKafki0H-43" target="se1pTx6E6cq9dKafki0H-47">
          <mxGeometry relative="1" as="geometry" />
        </mxCell>
        <mxCell id="se1pTx6E6cq9dKafki0H-51" style="edgeStyle=orthogonalEdgeStyle;rounded=0;orthogonalLoop=1;jettySize=auto;html=1;entryX=0.5;entryY=0.5;entryDx=0;entryDy=15;entryPerimeter=0;" edge="1" parent="1" source="se1pTx6E6cq9dKafki0H-35" target="se1pTx6E6cq9dKafki0H-14">
          <mxGeometry relative="1" as="geometry" />
        </mxCell>
      </root>
    </mxGraphModel>
  </diagram>
</mxfile>
